Title:  The Broken (2008)

Starring: Lena Headey, Melvil Poupaud, Ulrich Thomsen, Richard Jenkins.  Directed by Sean Ellis.

IMdB code: http://www.imdb.com/title/tt0906734/

Summary: A psychological thriller centred around a London doctor whose relatives' mirrors start to break, seemingly at random, followed by strange, untypical behaviour.  A chance encounter in the street with someone who could not possibly be there leads her to investigate, at the risk of her sanity, and her life.

General
Format                           : MPEG-PS
File size                        : 1 023 MiB
Duration                         : 93mn
Overall bit rate                 : 6 047 Kbps

Video
ID                               : 224 (0xE0)
Format                           : MPEG Video
Format version                   : Version 2
Format profile                   : Main@Main
Format settings, BVOP            : Yes
Format settings, Matrix          : Default
Duration                         : 93mn
Bit rate mode                    : Variable
Bit rate                         : 5 479 Kbps
Nominal bit rate                 : 9 800 Kbps
Width                            : 720 pixels
Height                           : 480 pixels
Display aspect ratio             : 16:9
Frame rate                       : 23.976 fps
Standard                         : NTSC
Color space                      : YUV
Chroma subsampling               : 4:2:0
Bit depth                        : 8 bits
Scan type                        : Progressive
Scan order                       : 2:3 Pulldown
Compression mode                 : Lossy
Bits/(Pixel*Frame)               : 0.661
Stream size                      : 927 MiB (91%)

Audio
ID                               : 189 (0xBD)-128 (0x80)
Format                           : AC-3
Format/Info                      : Audio Coding 3
Mode extension                   : CM (complete main)
Muxing mode                      : DVD-Video
Duration                         : 23mn 39s
Bit rate mode                    : Constant
Bit rate                         : 448 Kbps
Channel(s)                       : 6 channels
Channel positions                : Front: L C R, Side: L R, LFE
Sampling rate                    : 48.0 KHz
Bit depth                        : 16 bits
Compression mode                 : Lossy
Stream size                      : 75.8 MiB (7%)

Text
ID                               : 224 (0xE0)-DVD-2
Format                           : EIA-608
Muxing mode                      : DVD-Video
Muxing mode, more info           : Muxed in Video #1
Stream size                      : 0.00 Byte (0%)


[img]http://bayimg.com/OAohfaaDC[/img]

[img]http://bayimg.com/OAOHGAADc[/img]

[img]http://bayimg.com/pAOHfaADC[/img]